<svg width="24" height="24" fill="none" xmlns="http://www.w3.org/2000/svg"><path fill="#D2D2D2" d="M0 0h24v24H0z"/><rect x="-728" y="-1398" width="1224" height="2537" rx="16" fill="#fff"/><path d="M21.92 11.6C19.9 6.91 16.1 4 12 4s-7.9 2.91-9.92 7.6a1 1 0 0 0 0 .8C4.1 17.09 7.9 20 12 20s7.9-2.91 9.92-7.6a1 1 0 0 0 0-.8zM12 18c-3.17 0-6.17-2.29-7.9-6C5.83 8.29 8.83 6 12 6s6.17 2.29 7.9 6c-1.73 3.71-4.73 6-7.9 6zm0-10a4 4 0 1 0 0 8 4 4 0 0 0 0-8zm0 6a2 2 0 1 1 0-4 2 2 0 0 1 0 4z" fill="#1B1B1B"/></svg>